# xmcd
#
# Track frame offsets: 
#        150
#        25533
#        46125
#        69970
#        90340
#        108831
#        131343
#        147212
#        168163
#        188855
#        203802
#        225649
#        246799
#        268713
#        300333
#        312386
#        330226
#
# Disc length: 4665 seconds
#
# Revision: 0
# Processed by: cddbd v1.5.2PL0 Copyright (c) Steve Scherf et al.
# Submitted via: ExactAudioCopy v1.3
#
DISCID=ce123711
DTITLE=Various Artist - Urban Blues The Night Is Young
DYEAR=2018
DGENRE=Pop
TTITLE0=MANHA DE CARNAVAL
TTITLE1=まもなく太陽が沈む
TTITLE2=ぽっかり
TTITLE3=眠ってしまいたい
TTITLE4=Winter Trip feat.山田里香 (Bophana)
TTITLE5=TE CHERIR A JAMAIS {MAJOR FORCE T.K.O. MIX}
TTITLE6=MOANIN'
TTITLE7=アントニオの歌
TTITLE8=黒い瞳 (Dark Eyes)
TTITLE9=フライ・ミー・トゥ・ザ・ムーン
TTITLE10=out of control
TTITLE11=9月の海
TTITLE12=天使の日
TTITLE13=Touch my love again
TTITLE14=星の下に
TTITLE15=PURSUIT OF HAPPINESS
TTITLE16=カリンバ ナイト
EXTD=
EXTT0=
EXTT1=
EXTT2=
EXTT3=
EXTT4=
EXTT5=
EXTT6=
EXTT7=
EXTT8=
EXTT9=
EXTT10=
EXTT11=
EXTT12=
EXTT13=
EXTT14=
EXTT15=
EXTT16=
PLAYORDER=
